<svg width="26" height="26" viewBox="0 0 26 26" fill="none" xmlns="http://www.w3.org/2000/svg">
<path d="M6.42014 15.4656L5.59739 18.537L2.59026 18.6007C1.69157 16.9338 1.18182 15.0267 1.18182 13C1.18182 11.0403 1.65842 9.19223 2.50324 7.56497H2.50388L5.18107 8.0558L6.35384 10.7169C6.10838 11.4325 5.9746 12.2007 5.9746 13C5.97469 13.8676 6.13184 14.6988 6.42014 15.4656Z" fill="#FBBB00"/>
<path d="M24.6117 10.7922C24.7474 11.5071 24.8182 12.2454 24.8182 13C24.8182 13.8461 24.7292 14.6714 24.5598 15.4675C23.9845 18.1766 22.4812 20.5422 20.3987 22.2162L20.3981 22.2156L17.026 22.0435L16.5488 19.0643C17.9306 18.2539 19.0105 16.9857 19.5793 15.4675H13.2598V10.7922H19.6715H24.6117Z" fill="#518EF8"/>
<path d="M20.3981 22.2156L20.3987 22.2163C18.3734 23.8442 15.8006 24.8182 13 24.8182C8.49937 24.8182 4.58639 22.3026 2.59028 18.6007L6.42015 15.4656C7.41819 18.1293 9.98767 20.0254 13 20.0254C14.2948 20.0254 15.5078 19.6754 16.5487 19.0643L20.3981 22.2156Z" fill="#28B446"/>
<path d="M20.5436 3.90259L16.715 7.03699C15.6377 6.36364 14.3643 5.97465 13 5.97465C9.91952 5.97465 7.30197 7.95775 6.35393 10.7169L2.50393 7.56493H2.50328C4.47018 3.77273 8.4325 1.18182 13 1.18182C15.8676 1.18182 18.4968 2.20327 20.5436 3.90259Z" fill="#F14336"/>
</svg>
