<svg fill="#000" width="20" height="20" viewBox="0 0 18 12"  xmlns="http://www.w3.org/2000/svg">
  <path d="M1.41423 7.82362C2.18823 4.09555 5.42384 1.44663 9.06347 1.44663C12.702 1.44663 15.9376 4.09555 16.7127 7.82362C16.7434 7.97156 16.8315 8.1012 16.9575 8.18403C17.0835 8.26686 17.2371 8.29609 17.3846 8.2653C17.5321 8.2345 17.6613 8.14621 17.7439 8.01982C17.8265 7.89344 17.8556 7.73934 17.8249 7.5914C16.9431 3.35108 13.2547 0.308289 9.06347 0.308289C4.87228 0.308289 1.18384 3.35108 0.302023 7.5914C0.271322 7.73934 0.300467 7.89344 0.383047 8.01982C0.465627 8.14621 0.594878 8.2345 0.742365 8.2653C0.889853 8.29609 1.0435 8.26686 1.16949 8.18403C1.29549 8.1012 1.38353 7.97156 1.41423 7.82362ZM9.05212 3.72331C10.1056 3.72331 11.1159 4.14308 11.8609 4.89026C12.6058 5.63744 13.0243 6.65084 13.0243 7.70751C13.0243 8.76419 12.6058 9.77758 11.8609 10.5248C11.1159 11.2719 10.1056 11.6917 9.05212 11.6917C7.99864 11.6917 6.98831 11.2719 6.24338 10.5248C5.49846 9.77758 5.07996 8.76419 5.07996 7.70751C5.07996 6.65084 5.49846 5.63744 6.24338 4.89026C6.98831 4.14308 7.99864 3.72331 9.05212 3.72331Z" fill="#000"/>
</svg>
